<svg viewBox="0 0 800 440" xmlns="http://www.w3.org/2000/svg" preserveAspectRatio="xMidYMid meet" role="img">
<style>
  .serif  { font-family: 'Playfair Display', Georgia, 'Times New Roman', serif; font-weight: 800; }
  .sans   { font-family: 'Inter', -apple-system, BlinkMacSystemFont, sans-serif; }
  .label  { font-family: 'Inter', sans-serif; font-weight: 700; text-transform: uppercase; letter-spacing: 0.08em; }
</style>
<rect width="800" height="440" fill="#ffffff"/>
<rect x="20" y="20" rx="14" ry="14" width="760" height="400" fill="#ffffff" stroke="#e2e8f0" stroke-width="1"/>
<text x="40" y="60" class="serif" font-size="26" fill="#0f172a">Deliverability — primary inbox placement</text>
<text x="40" y="85" class="sans" font-size="13" fill="#64748b">Tested over 350 campaigns across 5 inbox providers</text>
<text x="200" y="134" class="sans" font-size="14" fill="#334155" text-anchor="end" font-weight="600">Constant Contact</text><rect x="220" y="110" rx="6" ry="6" width="460" height="36" fill="#10b981"/><text x="668" y="134" class="sans" font-size="13" fill="#ffffff" text-anchor="end" font-weight="700">97.4%</text><text x="200" y="186" class="sans" font-size="14" fill="#334155" text-anchor="end" font-weight="600">MailerLite</text><rect x="220" y="162" rx="6" ry="6" width="454" height="36" fill="#e2f6ef"/><text x="662" y="186" class="sans" font-size="13" fill="#0f172a" text-anchor="end" font-weight="700">96.2%</text><text x="200" y="238" class="sans" font-size="14" fill="#334155" text-anchor="end" font-weight="600">Mailchimp</text><rect x="220" y="214" rx="6" ry="6" width="447" height="36" fill="#e2f6ef"/><text x="655" y="238" class="sans" font-size="13" fill="#0f172a" text-anchor="end" font-weight="700">94.8%</text><text x="200" y="290" class="sans" font-size="14" fill="#334155" text-anchor="end" font-weight="600">ActiveCampaign</text><rect x="220" y="266" rx="6" ry="6" width="444" height="36" fill="#e2f6ef"/><text x="652" y="290" class="sans" font-size="13" fill="#0f172a" text-anchor="end" font-weight="700">94.1%</text><text x="200" y="342" class="sans" font-size="14" fill="#334155" text-anchor="end" font-weight="600">Brevo</text><rect x="220" y="318" rx="6" ry="6" width="437" height="36" fill="#e2f6ef"/><text x="645" y="342" class="sans" font-size="13" fill="#0f172a" text-anchor="end" font-weight="700">92.7%</text>
<text x="40" y="412" class="sans" font-size="11" fill="#64748b">Source: EmailToolAdviser testing, 2026</text>
</svg>