<svg viewBox="0 0 800 592" xmlns="http://www.w3.org/2000/svg" preserveAspectRatio="xMidYMid meet" role="img">
<style>
  .serif  { font-family: 'Playfair Display', Georgia, 'Times New Roman', serif; font-weight: 800; }
  .sans   { font-family: 'Inter', -apple-system, BlinkMacSystemFont, sans-serif; }
  .label  { font-family: 'Inter', sans-serif; font-weight: 700; text-transform: uppercase; letter-spacing: 0.08em; }
</style>
<rect width="800" height="592" fill="#ffffff"/>
<rect x="20" y="20" rx="14" ry="14" width="760" height="552" fill="#ffffff" stroke="#e2e8f0" stroke-width="1"/>
<text x="40" y="65" class="serif" font-size="26" fill="#0f172a">Constant Contact vs MailerLite: Which Wins for Small Business</text>
<text x="40" y="90" class="sans" font-size="13" fill="#64748b">Apples-to-apples editorial scoring</text>

<!-- table headers -->
<rect x="40" y="110" width="220" height="76" fill="#f8fafc"/>
<rect x="260" y="110" width="250" height="76" fill="#10b981"/>
<rect x="510" y="110" width="250" height="76" fill="#0f172a"/>
<text x="58" y="155" class="label" font-size="11" fill="#64748b">CRITERIA</text>
<text x="385" y="160" class="serif" font-size="20" fill="#ffffff" text-anchor="middle">Constant Contact</text>
<text x="635" y="160" class="serif" font-size="20" fill="#ffffff" text-anchor="middle">MailerLite</text>
<g><rect x="268" y="122" rx="50" ry="50" width="74" height="20" fill="#ffffff"/><text x="305" y="136" class="label" font-size="10" fill="#10b981" text-anchor="middle">WINNER</text></g>

<rect x="40" y="186" width="720" height="56" fill="#ffffff"/><text x="58" y="220" class="label" font-size="11" fill="#64748b">Starting price</text><text x="385" y="220" class="sans" font-size="15" fill="#0f172a" text-anchor="middle" font-weight="500">$12/mo</text><text x="635" y="220" class="sans" font-size="15" fill="#0f172a" text-anchor="middle" font-weight="800">$10/mo</text><rect x="40" y="242" width="720" height="56" fill="#f8fafc"/><text x="58" y="276" class="label" font-size="11" fill="#64748b">Free tier</text><text x="385" y="276" class="sans" font-size="15" fill="#0f172a" text-anchor="middle" font-weight="500">60-day trial</text><text x="635" y="276" class="sans" font-size="15" fill="#0f172a" text-anchor="middle" font-weight="800">Yes (1k)</text><rect x="40" y="298" width="720" height="56" fill="#ffffff"/><text x="58" y="332" class="label" font-size="11" fill="#64748b">Phone support</text><text x="385" y="332" class="sans" font-size="15" fill="#0f172a" text-anchor="middle" font-weight="800">Yes</text><text x="635" y="332" class="sans" font-size="15" fill="#0f172a" text-anchor="middle" font-weight="500">No</text><rect x="40" y="354" width="720" height="56" fill="#f8fafc"/><text x="58" y="388" class="label" font-size="11" fill="#64748b">Templates</text><text x="385" y="388" class="sans" font-size="15" fill="#0f172a" text-anchor="middle" font-weight="800">100+</text><text x="635" y="388" class="sans" font-size="15" fill="#0f172a" text-anchor="middle" font-weight="500">75</text><rect x="40" y="410" width="720" height="56" fill="#ffffff"/><text x="58" y="444" class="label" font-size="11" fill="#64748b">Onboarding</text><text x="385" y="444" class="sans" font-size="15" fill="#0f172a" text-anchor="middle" font-weight="800">Editorial</text><text x="635" y="444" class="sans" font-size="15" fill="#0f172a" text-anchor="middle" font-weight="500">Self-serve</text><rect x="40" y="466" width="720" height="56" fill="#f8fafc"/><text x="58" y="500" class="label" font-size="11" fill="#64748b">Best for</text><text x="385" y="500" class="sans" font-size="15" fill="#0f172a" text-anchor="middle" font-weight="800">Local biz</text><text x="635" y="500" class="sans" font-size="15" fill="#0f172a" text-anchor="middle" font-weight="500">Solo creators</text>

<text x="40" y="564" class="sans" font-size="11" fill="#64748b">Source: EmailToolAdviser testing, 2026</text>
</svg>