<svg viewBox="0 0 800 490" xmlns="http://www.w3.org/2000/svg" preserveAspectRatio="xMidYMid meet" role="img">
<style>
  @import url('https://fonts.googleapis.com/css2?family=Playfair+Display:wght@800;900&family=Inter:wght@400;500;600;700;800&display=swap');
  .serif  { font-family: 'Playfair Display', Georgia, 'Times New Roman', serif; font-weight: 800; }
  .sans   { font-family: 'Inter', -apple-system, BlinkMacSystemFont, sans-serif; }
  .label  { font-family: 'Inter', sans-serif; font-weight: 700; text-transform: uppercase; letter-spacing: 0.08em; }
</style>
<rect width="800" height="490" fill="#ffffff"/>
<rect x="20" y="20" rx="14" ry="14" width="760" height="450" fill="#ffffff" stroke="#e2e8f0" stroke-width="1"/>
<text x="40" y="65" class="serif" font-size="26" fill="#0f172a">Constant Contact pricing</text>
<text x="40" y="90" class="sans" font-size="13" fill="#64748b">All plans, real prices, no surprises</text>
<rect x="40" y="130" rx="12" ry="12" width="229" height="280" fill="#ffffff" stroke="#e2e8f0" stroke-width="1"/><text x="58" y="190" class="label" font-size="11" fill="#64748b">LITE</text><text x="58" y="240" class="serif" font-size="36" fill="#0f172a">$12/mo</text><text x="58" y="268" class="sans" font-size="12" fill="#64748b">Up to 500 contacts</text><g transform="translate(58, 295)"><circle cx="6" cy="6" r="6" fill="#10b981"/><path d="M3 6.5 l2 2 l4 -4" stroke="#ffffff" stroke-width="1.5" fill="none" stroke-linecap="round" stroke-linejoin="round"/><text x="20" y="11" class="sans" font-size="12" fill="#334155">Email</text></g><g transform="translate(58, 317)"><circle cx="6" cy="6" r="6" fill="#10b981"/><path d="M3 6.5 l2 2 l4 -4" stroke="#ffffff" stroke-width="1.5" fill="none" stroke-linecap="round" stroke-linejoin="round"/><text x="20" y="11" class="sans" font-size="12" fill="#334155">Templates</text></g><g transform="translate(58, 339)"><circle cx="6" cy="6" r="6" fill="#10b981"/><path d="M3 6.5 l2 2 l4 -4" stroke="#ffffff" stroke-width="1.5" fill="none" stroke-linecap="round" stroke-linejoin="round"/><text x="20" y="11" class="sans" font-size="12" fill="#334155">Reporting</text></g><rect x="285" y="130" rx="12" ry="12" width="229" height="280" fill="#ffffff" stroke="#10b981" stroke-width="2"/><rect x="285" y="130" rx="12" ry="12" width="229" height="32" fill="#10b981"/><text x="399" y="151" class="label" font-size="11" fill="#ffffff" text-anchor="middle">RECOMMENDED</text><text x="303" y="222" class="label" font-size="11" fill="#64748b">STANDARD</text><text x="303" y="272" class="serif" font-size="36" fill="#0f172a">$35/mo</text><text x="303" y="300" class="sans" font-size="12" fill="#64748b">Up to 500 contacts</text><g transform="translate(303, 327)"><circle cx="6" cy="6" r="6" fill="#10b981"/><path d="M3 6.5 l2 2 l4 -4" stroke="#ffffff" stroke-width="1.5" fill="none" stroke-linecap="round" stroke-linejoin="round"/><text x="20" y="11" class="sans" font-size="12" fill="#334155">Automations</text></g><g transform="translate(303, 349)"><circle cx="6" cy="6" r="6" fill="#10b981"/><path d="M3 6.5 l2 2 l4 -4" stroke="#ffffff" stroke-width="1.5" fill="none" stroke-linecap="round" stroke-linejoin="round"/><text x="20" y="11" class="sans" font-size="12" fill="#334155">Segmentation</text></g><g transform="translate(303, 371)"><circle cx="6" cy="6" r="6" fill="#10b981"/><path d="M3 6.5 l2 2 l4 -4" stroke="#ffffff" stroke-width="1.5" fill="none" stroke-linecap="round" stroke-linejoin="round"/><text x="20" y="11" class="sans" font-size="12" fill="#334155">AI</text></g><g transform="translate(303, 393)"><circle cx="6" cy="6" r="6" fill="#10b981"/><path d="M3 6.5 l2 2 l4 -4" stroke="#ffffff" stroke-width="1.5" fill="none" stroke-linecap="round" stroke-linejoin="round"/><text x="20" y="11" class="sans" font-size="12" fill="#334155">A/B</text></g><g transform="translate(303, 415)"><circle cx="6" cy="6" r="6" fill="#10b981"/><path d="M3 6.5 l2 2 l4 -4" stroke="#ffffff" stroke-width="1.5" fill="none" stroke-linecap="round" stroke-linejoin="round"/><text x="20" y="11" class="sans" font-size="12" fill="#334155">Phone support</text></g><rect x="530" y="130" rx="12" ry="12" width="229" height="280" fill="#ffffff" stroke="#e2e8f0" stroke-width="1"/><text x="548" y="190" class="label" font-size="11" fill="#64748b">PREMIUM</text><text x="548" y="240" class="serif" font-size="36" fill="#0f172a">$80/mo</text><text x="548" y="268" class="sans" font-size="12" fill="#64748b">Up to 500 contacts</text><g transform="translate(548, 295)"><circle cx="6" cy="6" r="6" fill="#10b981"/><path d="M3 6.5 l2 2 l4 -4" stroke="#ffffff" stroke-width="1.5" fill="none" stroke-linecap="round" stroke-linejoin="round"/><text x="20" y="11" class="sans" font-size="12" fill="#334155">Revenue tracking</text></g><g transform="translate(548, 317)"><circle cx="6" cy="6" r="6" fill="#10b981"/><path d="M3 6.5 l2 2 l4 -4" stroke="#ffffff" stroke-width="1.5" fill="none" stroke-linecap="round" stroke-linejoin="round"/><text x="20" y="11" class="sans" font-size="12" fill="#334155">Dynamic content</text></g><g transform="translate(548, 339)"><circle cx="6" cy="6" r="6" fill="#10b981"/><path d="M3 6.5 l2 2 l4 -4" stroke="#ffffff" stroke-width="1.5" fill="none" stroke-linecap="round" stroke-linejoin="round"/><text x="20" y="11" class="sans" font-size="12" fill="#334155">Reports</text></g><g transform="translate(548, 361)"><circle cx="6" cy="6" r="6" fill="#10b981"/><path d="M3 6.5 l2 2 l4 -4" stroke="#ffffff" stroke-width="1.5" fill="none" stroke-linecap="round" stroke-linejoin="round"/><text x="20" y="11" class="sans" font-size="12" fill="#334155">Account mgr</text></g>
<text x="40" y="462" class="sans" font-size="11" fill="#64748b">Prices as of 2026, billed monthly</text>
</svg>