<svg viewBox="0 0 800 440" xmlns="http://www.w3.org/2000/svg" preserveAspectRatio="xMidYMid meet" role="img">
<style>
  .serif  { font-family: 'Playfair Display', Georgia, 'Times New Roman', serif; font-weight: 800; }
  .sans   { font-family: 'Inter', -apple-system, BlinkMacSystemFont, sans-serif; }
  .label  { font-family: 'Inter', sans-serif; font-weight: 700; text-transform: uppercase; letter-spacing: 0.08em; }
</style>
<rect width="800" height="440" fill="#ffffff"/>
<rect x="20" y="20" rx="14" ry="14" width="760" height="400" fill="#ffffff" stroke="#e2e8f0" stroke-width="1"/>
<text x="40" y="60" class="serif" font-size="26" fill="#0f172a">Open-rate impact by tactic</text>
<text x="40" y="85" class="sans" font-size="13" fill="#64748b">Lift over baseline across small-business send tests</text>
<text x="200" y="134" class="sans" font-size="14" fill="#334155" text-anchor="end" font-weight="600">Segmented sends</text><rect x="220" y="110" rx="6" ry="6" width="460" height="36" fill="#10b981"/><text x="668" y="134" class="sans" font-size="13" fill="#ffffff" text-anchor="end" font-weight="700">+760%</text><text x="200" y="186" class="sans" font-size="14" fill="#334155" text-anchor="end" font-weight="600">Send-time A/B</text><rect x="220" y="162" rx="6" ry="6" width="25" height="36" fill="#e2f6ef"/><text x="233" y="186" class="sans" font-size="13" fill="#0f172a" text-anchor="end" font-weight="700">+42%</text><text x="200" y="238" class="sans" font-size="14" fill="#334155" text-anchor="end" font-weight="600">Personalized subject</text><rect x="220" y="214" rx="6" ry="6" width="17" height="36" fill="#e2f6ef"/><text x="225" y="238" class="sans" font-size="13" fill="#0f172a" text-anchor="end" font-weight="700">+29%</text><text x="200" y="290" class="sans" font-size="14" fill="#334155" text-anchor="end" font-weight="600">Plain-text format</text><rect x="220" y="266" rx="6" ry="6" width="10" height="36" fill="#e2f6ef"/><text x="218" y="290" class="sans" font-size="13" fill="#0f172a" text-anchor="end" font-weight="700">+17%</text><text x="200" y="342" class="sans" font-size="14" fill="#334155" text-anchor="end" font-weight="600">Emoji in subject</text><rect x="220" y="318" rx="6" ry="6" width="8" height="36" fill="#e2f6ef"/><text x="216" y="342" class="sans" font-size="13" fill="#0f172a" text-anchor="end" font-weight="700">+8%</text>
<text x="40" y="412" class="sans" font-size="11" fill="#64748b">Source: EmailToolAdviser testing, 2026</text>
</svg>