<svg viewBox="0 0 800 440" xmlns="http://www.w3.org/2000/svg" preserveAspectRatio="xMinYMin meet" role="img" style="width:100%;height:auto;">
<style>
  .serif  { font-family: Georgia, 'Times New Roman', 'Playfair Display', serif; font-weight: 800; }
  .sans   { font-family: system-ui, -apple-system, BlinkMacSystemFont, 'Segoe UI', sans-serif; }
  .label  { font-family: system-ui, sans-serif; font-weight: 700; text-transform: uppercase; letter-spacing: 0.08em; }
</style>
<rect width="800" height="440" fill="#ffffff"/>
<rect x="20" y="20" rx="14" ry="14" width="760" height="400" fill="#ffffff" stroke="#e2e8f0" stroke-width="1"/>
<text x="40" y="60" class="serif" font-size="26" fill="#0f172a">Email ROI by tactic</text>
<text x="40" y="85" class="sans" font-size="13" fill="#64748b">Average return per dollar spent</text>
<text x="170" y="130" class="sans" font-size="13" fill="#334155" text-anchor="end" font-weight="600">Abandoned cart</text><rect x="196" y="110" rx="6" ry="6" width="548" height="32" fill="#10b981"/><text x="734" y="130" class="sans" font-size="13" fill="#ffffff" text-anchor="end" font-weight="700">$44</text><text x="170" y="182" class="sans" font-size="13" fill="#334155" text-anchor="end" font-weight="600">Welcome series</text><rect x="196" y="162" rx="6" ry="6" width="473" height="32" fill="#e2f6ef"/><text x="659" y="182" class="sans" font-size="13" fill="#0f172a" text-anchor="end" font-weight="700">$38</text><text x="170" y="234" class="sans" font-size="13" fill="#334155" text-anchor="end" font-weight="600">Re-engagement</text><rect x="196" y="214" rx="6" ry="6" width="361" height="32" fill="#e2f6ef"/><text x="547" y="234" class="sans" font-size="13" fill="#0f172a" text-anchor="end" font-weight="700">$29</text><text x="170" y="286" class="sans" font-size="13" fill="#334155" text-anchor="end" font-weight="600">Weekly newsletter</text><rect x="196" y="266" rx="6" ry="6" width="274" height="32" fill="#e2f6ef"/><text x="460" y="286" class="sans" font-size="13" fill="#0f172a" text-anchor="end" font-weight="700">$22</text><text x="170" y="338" class="sans" font-size="13" fill="#334155" text-anchor="end" font-weight="600">Cold acquisition</text><rect x="196" y="318" rx="6" ry="6" width="99" height="32" fill="#e2f6ef"/><text x="285" y="338" class="sans" font-size="13" fill="#0f172a" text-anchor="end" font-weight="700">$8</text>
<text x="40" y="412" class="sans" font-size="11" fill="#64748b">Source: EmailToolAdviser testing, 2026</text>
</svg>