<svg viewBox="0 0 720 678" xmlns="http://www.w3.org/2000/svg" preserveAspectRatio="xMidYMid meet" role="img">
<style>
  @import url('https://fonts.googleapis.com/css2?family=Playfair+Display:wght@800;900&family=Inter:wght@400;500;600;700;800&display=swap');
  .serif  { font-family: 'Playfair Display', Georgia, 'Times New Roman', serif; font-weight: 800; }
  .sans   { font-family: 'Inter', -apple-system, BlinkMacSystemFont, sans-serif; }
  .label  { font-family: 'Inter', sans-serif; font-weight: 700; text-transform: uppercase; letter-spacing: 0.08em; }
</style>
<rect width="720" height="678" fill="#ffffff"/>
<rect x="20" y="20" rx="14" ry="14" width="680" height="638" fill="#ffffff" stroke="#e2e8f0" stroke-width="1"/><text x="40" y="60" class="label" font-size="11" fill="#10b981">EDITORIAL SCORECARD</text><text x="40" y="100" class="serif" font-size="32" fill="#0f172a">MailerLite</text><g transform="translate(40, 130)"><text x="0" y="80" class="serif" font-size="96" fill="#10b981">4.0</text><text x="135" y="80" class="serif" font-size="32" fill="#64748b">/ 5</text></g><g transform="translate(400, 150)"><rect x="0" y="0" rx="100" ry="100" width="280" height="36" fill="#e2f6ef"/><text x="140" y="24" class="label" font-size="12" fill="#10b981" text-anchor="middle">BEST FOR SOLO CREATORS</text></g>
<line x1="40" y1="260" x2="680" y2="260" stroke="#e2e8f0"/>
<text x="40" y="302" class="sans" font-size="13" fill="#334155" font-weight="600">Ease of use</text><text x="660" y="302" class="sans" font-size="13" fill="#0f172a" text-anchor="end" font-weight="700">4.7</text><rect x="40" y="308" rx="4" ry="4" width="560" height="16" fill="#f8fafc"/><rect x="40" y="308" rx="4" ry="4" width="526" height="16" fill="#10b981"/><text x="40" y="346" class="sans" font-size="13" fill="#334155" font-weight="600">Deliverability</text><text x="660" y="346" class="sans" font-size="13" fill="#0f172a" text-anchor="end" font-weight="700">4.2</text><rect x="40" y="352" rx="4" ry="4" width="560" height="16" fill="#f8fafc"/><rect x="40" y="352" rx="4" ry="4" width="470" height="16" fill="#10b981"/><text x="40" y="390" class="sans" font-size="13" fill="#334155" font-weight="600">Support</text><text x="660" y="390" class="sans" font-size="13" fill="#0f172a" text-anchor="end" font-weight="700">3.6</text><rect x="40" y="396" rx="4" ry="4" width="560" height="16" fill="#f8fafc"/><rect x="40" y="396" rx="4" ry="4" width="403" height="16" fill="#10b981"/><text x="40" y="434" class="sans" font-size="13" fill="#334155" font-weight="600">Templates</text><text x="660" y="434" class="sans" font-size="13" fill="#0f172a" text-anchor="end" font-weight="700">4.0</text><rect x="40" y="440" rx="4" ry="4" width="560" height="16" fill="#f8fafc"/><rect x="40" y="440" rx="4" ry="4" width="448" height="16" fill="#10b981"/><text x="40" y="478" class="sans" font-size="13" fill="#334155" font-weight="600">Automation</text><text x="660" y="478" class="sans" font-size="13" fill="#0f172a" text-anchor="end" font-weight="700">3.8</text><rect x="40" y="484" rx="4" ry="4" width="560" height="16" fill="#f8fafc"/><rect x="40" y="484" rx="4" ry="4" width="425" height="16" fill="#10b981"/><text x="40" y="522" class="sans" font-size="13" fill="#334155" font-weight="600">Price predictability</text><text x="660" y="522" class="sans" font-size="13" fill="#0f172a" text-anchor="end" font-weight="700">4.5</text><rect x="40" y="528" rx="4" ry="4" width="560" height="16" fill="#f8fafc"/><rect x="40" y="528" rx="4" ry="4" width="504" height="16" fill="#10b981"/><text x="40" y="566" class="sans" font-size="13" fill="#334155" font-weight="600">Integrations</text><text x="660" y="566" class="sans" font-size="13" fill="#0f172a" text-anchor="end" font-weight="700">3.7</text><rect x="40" y="572" rx="4" ry="4" width="560" height="16" fill="#f8fafc"/><rect x="40" y="572" rx="4" ry="4" width="414" height="16" fill="#10b981"/>
<text x="40" y="650" class="sans" font-size="11" fill="#64748b">EmailToolAdviser editorial scoring</text>
</svg>